<?xml version="1.0" standalone="no"?><!DOCTYPE svg PUBLIC "-//W3C//DTD SVG 1.1//EN" "http://www.w3.org/Graphics/SVG/1.1/DTD/svg11.dtd"><svg t="1750234907721" class="icon" viewBox="0 0 1024 1024" version="1.1" xmlns="http://www.w3.org/2000/svg" p-id="10366" xmlns:xlink="http://www.w3.org/1999/xlink" width="200" height="200"><path d="M533.8 795.6c-13.9-13.3-34.8-13.3-48.7 0L359.2 897.7c-18.3 13-42.6 9.2-56.8-8.9-11.9-20-8.4-46.6 8.1-62.1l125.8-102.2c41.8-35.5 100.3-35.5 142.2 0l125.8 102.2c16.8 15.4 20.3 42.2 8.1 62.1-14.1 18.4-38.6 22.2-56.8 8.9L533.8 795.6z" fill="#BBBBC0" p-id="10367"></path><path d="M826.2 103.1H192.7c-68.4-3.6-126.5 54.1-129.8 129-0.1 1.4-0.1 2.8-0.1 4.3v444c2.7 75.8 60.6 135.2 129.9 133.1h32.5c8.6-0.9 16.9-3.9 24.3-8.9L440.4 658c43.1-31.1 99-31.1 142.2 0l190.9 146.6c7.4 4.9 15.7 8 24.3 8.9h32.5c68.4 3.6 126.5-54.1 129.8-129 0.1-1.4 0.1-2.7 0.1-4.2v-444c-4.5-76.7-63.8-135.7-134-133.2zM566.3 564.8c-20.2 9.6-43.7-0.2-52.8-22.2l-85.2-199.8-24.4 62.1h4.1c24.3 0 54.4 7 56.8 42.7 2.4 35.7-32.5 46-56.8 46h-40.6L343 547c-7.5 20-28.4 29.5-46.7 21.2-2.1-1-4.1-2.1-6.1-3.5-18.3-8.2-27-31.1-19.4-51.1 0.9-2.3 1.9-4.5 3.2-6.7l32.5-75.5 85.2-213.1c5.2-17 20.2-27.9 36.5-26.6 16-0.2 30.5 10.4 36.5 26.6L586.4 507c9 22.1 0 47.8-20.1 57.8z m146.1-40c1.3 23.1-14.8 43-35.9 44.4-1.6 0.1-3.1 0.1-4.7 0-21.1 1.4-39.3-16.2-40.6-39.3-0.1-1.8-0.1-3.4 0-5.1V236.3c-1.3-23.1 14.8-43 35.9-44.4 1.6-0.1 3.1-0.1 4.7 0 21.1-1.4 39.3 16.2 40.6 39.3 0.1 1.8 0.1 3.4 0 5.1v288.5z" fill="#BBBBC0" p-id="10368"></path></svg>